<svg width="64" height="64" viewBox="0 0 64 64" fill="none" xmlns="http://www.w3.org/2000/svg">
<path d="M24.0007 58.6663H40.0007C53.334 58.6663 58.6673 53.333 58.6673 39.9997V23.9997C58.6673 10.6663 53.334 5.33301 40.0007 5.33301H24.0007C10.6673 5.33301 5.33398 10.6663 5.33398 23.9997V39.9997C5.33398 53.333 10.6673 58.6663 24.0007 58.6663Z" stroke="#0184FF" stroke-width="4" stroke-linecap="round" stroke-linejoin="round"/>
<path d="M23.9993 26.6667C26.9449 26.6667 29.3327 24.2789 29.3327 21.3333C29.3327 18.3878 26.9449 16 23.9993 16C21.0538 16 18.666 18.3878 18.666 21.3333C18.666 24.2789 21.0538 26.6667 23.9993 26.6667Z" stroke="#0184FF" stroke-width="4" stroke-linecap="round" stroke-linejoin="round"/>
<path d="M7.11914 50.5332L20.2658 41.7065C22.3725 40.2932 25.4125 40.4532 27.3058 42.0798L28.1858 42.8532C30.2658 44.6398 33.6258 44.6398 35.7058 42.8532L46.7991 33.3332C48.8791 31.5465 52.2391 31.5465 54.3191 33.3332L58.6658 37.0665" stroke="#0184FF" stroke-width="4" stroke-linecap="round" stroke-linejoin="round"/>
</svg>
