<svg width="185" height="244" viewBox="0 0 185 244" fill="none" xmlns="http://www.w3.org/2000/svg">
<path d="M2.76562 216.938L7.19531 225.504L11.6367 216.938H14.2031L8.32031 227.625V234H6.05859V227.625L0.175781 216.938H2.76562ZM14.7188 227.801V227.531C14.7188 226.617 14.8516 225.77 15.1172 224.988C15.3828 224.199 15.7656 223.516 16.2656 222.938C16.7656 222.352 17.3711 221.898 18.082 221.578C18.793 221.25 19.5898 221.086 20.4727 221.086C21.3633 221.086 22.1641 221.25 22.875 221.578C23.5938 221.898 24.2031 222.352 24.7031 222.938C25.2109 223.516 25.5977 224.199 25.8633 224.988C26.1289 225.77 26.2617 226.617 26.2617 227.531V227.801C26.2617 228.715 26.1289 229.562 25.8633 230.344C25.5977 231.125 25.2109 231.809 24.7031 232.395C24.2031 232.973 23.5977 233.426 22.8867 233.754C22.1836 234.074 21.3867 234.234 20.4961 234.234C19.6055 234.234 18.8047 234.074 18.0938 233.754C17.3828 233.426 16.7734 232.973 16.2656 232.395C15.7656 231.809 15.3828 231.125 15.1172 230.344C14.8516 229.562 14.7188 228.715 14.7188 227.801ZM16.8867 227.531V227.801C16.8867 228.434 16.9609 229.031 17.1094 229.594C17.2578 230.148 17.4805 230.641 17.7773 231.07C18.082 231.5 18.4609 231.84 18.9141 232.09C19.3672 232.332 19.8945 232.453 20.4961 232.453C21.0898 232.453 21.6094 232.332 22.0547 232.09C22.5078 231.84 22.8828 231.5 23.1797 231.07C23.4766 230.641 23.6992 230.148 23.8477 229.594C24.0039 229.031 24.082 228.434 24.082 227.801V227.531C24.082 226.906 24.0039 226.316 23.8477 225.762C23.6992 225.199 23.4727 224.703 23.168 224.273C22.8711 223.836 22.4961 223.492 22.043 223.242C21.5977 222.992 21.0742 222.867 20.4727 222.867C19.8789 222.867 19.3555 222.992 18.9023 223.242C18.457 223.492 18.082 223.836 17.7773 224.273C17.4805 224.703 17.2578 225.199 17.1094 225.762C16.9609 226.316 16.8867 226.906 16.8867 227.531ZM36.7383 231.07V221.32H38.918V234H36.8438L36.7383 231.07ZM37.1484 228.398L38.0508 228.375C38.0508 229.219 37.9609 230 37.7812 230.719C37.6094 231.43 37.3281 232.047 36.9375 232.57C36.5469 233.094 36.0352 233.504 35.4023 233.801C34.7695 234.09 34 234.234 33.0938 234.234C32.4766 234.234 31.9102 234.145 31.3945 233.965C30.8867 233.785 30.4492 233.508 30.082 233.133C29.7148 232.758 29.4297 232.27 29.2266 231.668C29.0312 231.066 28.9336 230.344 28.9336 229.5V221.32H31.1016V229.523C31.1016 230.094 31.1641 230.566 31.2891 230.941C31.4219 231.309 31.5977 231.602 31.8164 231.82C32.043 232.031 32.293 232.18 32.5664 232.266C32.8477 232.352 33.1367 232.395 33.4336 232.395C34.3555 232.395 35.0859 232.219 35.625 231.867C36.1641 231.508 36.5508 231.027 36.7852 230.426C37.0273 229.816 37.1484 229.141 37.1484 228.398ZM50.3438 216V234H48.1758V216H50.3438ZM49.8281 227.18L48.9258 227.145C48.9336 226.277 49.0625 225.477 49.3125 224.742C49.5625 224 49.9141 223.355 50.3672 222.809C50.8203 222.262 51.3594 221.84 51.9844 221.543C52.6172 221.238 53.3164 221.086 54.082 221.086C54.707 221.086 55.2695 221.172 55.7695 221.344C56.2695 221.508 56.6953 221.773 57.0469 222.141C57.4062 222.508 57.6797 222.984 57.8672 223.57C58.0547 224.148 58.1484 224.855 58.1484 225.691V234H55.9688V225.668C55.9688 225.004 55.8711 224.473 55.6758 224.074C55.4805 223.668 55.1953 223.375 54.8203 223.195C54.4453 223.008 53.9844 222.914 53.4375 222.914C52.8984 222.914 52.4062 223.027 51.9609 223.254C51.5234 223.48 51.1445 223.793 50.8242 224.191C50.5117 224.59 50.2656 225.047 50.0859 225.562C49.9141 226.07 49.8281 226.609 49.8281 227.18ZM68.8711 231.832V225.305C68.8711 224.805 68.7695 224.371 68.5664 224.004C68.3711 223.629 68.0742 223.34 67.6758 223.137C67.2773 222.934 66.7852 222.832 66.1992 222.832C65.6523 222.832 65.1719 222.926 64.7578 223.113C64.3516 223.301 64.0312 223.547 63.7969 223.852C63.5703 224.156 63.457 224.484 63.457 224.836H61.2891C61.2891 224.383 61.4062 223.934 61.6406 223.488C61.875 223.043 62.2109 222.641 62.6484 222.281C63.0938 221.914 63.625 221.625 64.2422 221.414C64.8672 221.195 65.5625 221.086 66.3281 221.086C67.25 221.086 68.0625 221.242 68.7656 221.555C69.4766 221.867 70.0312 222.34 70.4297 222.973C70.8359 223.598 71.0391 224.383 71.0391 225.328V231.234C71.0391 231.656 71.0742 232.105 71.1445 232.582C71.2227 233.059 71.3359 233.469 71.4844 233.812V234H69.2227C69.1133 233.75 69.0273 233.418 68.9648 233.004C68.9023 232.582 68.8711 232.191 68.8711 231.832ZM69.2461 226.312L69.2695 227.836H67.0781C66.4609 227.836 65.9102 227.887 65.4258 227.988C64.9414 228.082 64.5352 228.227 64.207 228.422C63.8789 228.617 63.6289 228.863 63.457 229.16C63.2852 229.449 63.1992 229.789 63.1992 230.18C63.1992 230.578 63.2891 230.941 63.4688 231.27C63.6484 231.598 63.918 231.859 64.2773 232.055C64.6445 232.242 65.0938 232.336 65.625 232.336C66.2891 232.336 66.875 232.195 67.3828 231.914C67.8906 231.633 68.293 231.289 68.5898 230.883C68.8945 230.477 69.0586 230.082 69.082 229.699L70.0078 230.742C69.9531 231.07 69.8047 231.434 69.5625 231.832C69.3203 232.23 68.9961 232.613 68.5898 232.98C68.1914 233.34 67.7148 233.641 67.1602 233.883C66.6133 234.117 65.9961 234.234 65.3086 234.234C64.4492 234.234 63.6953 234.066 63.0469 233.73C62.4062 233.395 61.9062 232.945 61.5469 232.383C61.1953 231.812 61.0195 231.176 61.0195 230.473C61.0195 229.793 61.1523 229.195 61.418 228.68C61.6836 228.156 62.0664 227.723 62.5664 227.379C63.0664 227.027 63.668 226.762 64.3711 226.582C65.0742 226.402 65.8594 226.312 66.7266 226.312H69.2461ZM78.1172 232.043L81.5859 221.32H83.8008L79.2422 234H77.7891L78.1172 232.043ZM75.2227 221.32L78.7969 232.102L79.043 234H77.5898L72.9961 221.32H75.2227ZM90.9844 234.234C90.1016 234.234 89.3008 234.086 88.582 233.789C87.8711 233.484 87.2578 233.059 86.7422 232.512C86.2344 231.965 85.8438 231.316 85.5703 230.566C85.2969 229.816 85.1602 228.996 85.1602 228.105V227.613C85.1602 226.582 85.3125 225.664 85.6172 224.859C85.9219 224.047 86.3359 223.359 86.8594 222.797C87.3828 222.234 87.9766 221.809 88.6406 221.52C89.3047 221.23 89.9922 221.086 90.7031 221.086C91.6094 221.086 92.3906 221.242 93.0469 221.555C93.7109 221.867 94.2539 222.305 94.6758 222.867C95.0977 223.422 95.4102 224.078 95.6133 224.836C95.8164 225.586 95.918 226.406 95.918 227.297V228.27H86.4492V226.5H93.75V226.336C93.7188 225.773 93.6016 225.227 93.3984 224.695C93.2031 224.164 92.8906 223.727 92.4609 223.383C92.0312 223.039 91.4453 222.867 90.7031 222.867C90.2109 222.867 89.7578 222.973 89.3438 223.184C88.9297 223.387 88.5742 223.691 88.2773 224.098C87.9805 224.504 87.75 225 87.5859 225.586C87.4219 226.172 87.3398 226.848 87.3398 227.613V228.105C87.3398 228.707 87.4219 229.273 87.5859 229.805C87.7578 230.328 88.0039 230.789 88.3242 231.188C88.6523 231.586 89.0469 231.898 89.5078 232.125C89.9766 232.352 90.5078 232.465 91.1016 232.465C91.8672 232.465 92.5156 232.309 93.0469 231.996C93.5781 231.684 94.043 231.266 94.4414 230.742L95.7539 231.785C95.4805 232.199 95.1328 232.594 94.7109 232.969C94.2891 233.344 93.7695 233.648 93.1523 233.883C92.543 234.117 91.8203 234.234 90.9844 234.234ZM106.57 224.027V234H104.402V221.32H106.453L106.57 224.027ZM106.055 227.18L105.152 227.145C105.16 226.277 105.289 225.477 105.539 224.742C105.789 224 106.141 223.355 106.594 222.809C107.047 222.262 107.586 221.84 108.211 221.543C108.844 221.238 109.543 221.086 110.309 221.086C110.934 221.086 111.496 221.172 111.996 221.344C112.496 221.508 112.922 221.773 113.273 222.141C113.633 222.508 113.906 222.984 114.094 223.57C114.281 224.148 114.375 224.855 114.375 225.691V234H112.195V225.668C112.195 225.004 112.098 224.473 111.902 224.074C111.707 223.668 111.422 223.375 111.047 223.195C110.672 223.008 110.211 222.914 109.664 222.914C109.125 222.914 108.633 223.027 108.188 223.254C107.75 223.48 107.371 223.793 107.051 224.191C106.738 224.59 106.492 225.047 106.312 225.562C106.141 226.07 106.055 226.609 106.055 227.18ZM117.094 227.801V227.531C117.094 226.617 117.227 225.77 117.492 224.988C117.758 224.199 118.141 223.516 118.641 222.938C119.141 222.352 119.746 221.898 120.457 221.578C121.168 221.25 121.965 221.086 122.848 221.086C123.738 221.086 124.539 221.25 125.25 221.578C125.969 221.898 126.578 222.352 127.078 222.938C127.586 223.516 127.973 224.199 128.238 224.988C128.504 225.77 128.637 226.617 128.637 227.531V227.801C128.637 228.715 128.504 229.562 128.238 230.344C127.973 231.125 127.586 231.809 127.078 232.395C126.578 232.973 125.973 233.426 125.262 233.754C124.559 234.074 123.762 234.234 122.871 234.234C121.98 234.234 121.18 234.074 120.469 233.754C119.758 233.426 119.148 232.973 118.641 232.395C118.141 231.809 117.758 231.125 117.492 230.344C117.227 229.562 117.094 228.715 117.094 227.801ZM119.262 227.531V227.801C119.262 228.434 119.336 229.031 119.484 229.594C119.633 230.148 119.855 230.641 120.152 231.07C120.457 231.5 120.836 231.84 121.289 232.09C121.742 232.332 122.27 232.453 122.871 232.453C123.465 232.453 123.984 232.332 124.43 232.09C124.883 231.84 125.258 231.5 125.555 231.07C125.852 230.641 126.074 230.148 126.223 229.594C126.379 229.031 126.457 228.434 126.457 227.801V227.531C126.457 226.906 126.379 226.316 126.223 225.762C126.074 225.199 125.848 224.703 125.543 224.273C125.246 223.836 124.871 223.492 124.418 223.242C123.973 222.992 123.449 222.867 122.848 222.867C122.254 222.867 121.73 222.992 121.277 223.242C120.832 223.492 120.457 223.836 120.152 224.273C119.855 224.703 119.633 225.199 119.484 225.762C119.336 226.316 119.262 226.906 119.262 227.531ZM139.477 223.758V238.875H137.297V221.32H139.289L139.477 223.758ZM148.02 227.555V227.801C148.02 228.723 147.91 229.578 147.691 230.367C147.473 231.148 147.152 231.828 146.73 232.406C146.316 232.984 145.805 233.434 145.195 233.754C144.586 234.074 143.887 234.234 143.098 234.234C142.293 234.234 141.582 234.102 140.965 233.836C140.348 233.57 139.824 233.184 139.395 232.676C138.965 232.168 138.621 231.559 138.363 230.848C138.113 230.137 137.941 229.336 137.848 228.445V227.133C137.941 226.195 138.117 225.355 138.375 224.613C138.633 223.871 138.973 223.238 139.395 222.715C139.824 222.184 140.344 221.781 140.953 221.508C141.562 221.227 142.266 221.086 143.062 221.086C143.859 221.086 144.566 221.242 145.184 221.555C145.801 221.859 146.32 222.297 146.742 222.867C147.164 223.438 147.48 224.121 147.691 224.918C147.91 225.707 148.02 226.586 148.02 227.555ZM145.84 227.801V227.555C145.84 226.922 145.773 226.328 145.641 225.773C145.508 225.211 145.301 224.719 145.02 224.297C144.746 223.867 144.395 223.531 143.965 223.289C143.535 223.039 143.023 222.914 142.43 222.914C141.883 222.914 141.406 223.008 141 223.195C140.602 223.383 140.262 223.637 139.98 223.957C139.699 224.27 139.469 224.629 139.289 225.035C139.117 225.434 138.988 225.848 138.902 226.277V229.312C139.059 229.859 139.277 230.375 139.559 230.859C139.84 231.336 140.215 231.723 140.684 232.02C141.152 232.309 141.742 232.453 142.453 232.453C143.039 232.453 143.543 232.332 143.965 232.09C144.395 231.84 144.746 231.5 145.02 231.07C145.301 230.641 145.508 230.148 145.641 229.594C145.773 229.031 145.84 228.434 145.84 227.801ZM150.211 227.801V227.531C150.211 226.617 150.344 225.77 150.609 224.988C150.875 224.199 151.258 223.516 151.758 222.938C152.258 222.352 152.863 221.898 153.574 221.578C154.285 221.25 155.082 221.086 155.965 221.086C156.855 221.086 157.656 221.25 158.367 221.578C159.086 221.898 159.695 222.352 160.195 222.938C160.703 223.516 161.09 224.199 161.355 224.988C161.621 225.77 161.754 226.617 161.754 227.531V227.801C161.754 228.715 161.621 229.562 161.355 230.344C161.09 231.125 160.703 231.809 160.195 232.395C159.695 232.973 159.09 233.426 158.379 233.754C157.676 234.074 156.879 234.234 155.988 234.234C155.098 234.234 154.297 234.074 153.586 233.754C152.875 233.426 152.266 232.973 151.758 232.395C151.258 231.809 150.875 231.125 150.609 230.344C150.344 229.562 150.211 228.715 150.211 227.801ZM152.379 227.531V227.801C152.379 228.434 152.453 229.031 152.602 229.594C152.75 230.148 152.973 230.641 153.27 231.07C153.574 231.5 153.953 231.84 154.406 232.09C154.859 232.332 155.387 232.453 155.988 232.453C156.582 232.453 157.102 232.332 157.547 232.09C158 231.84 158.375 231.5 158.672 231.07C158.969 230.641 159.191 230.148 159.34 229.594C159.496 229.031 159.574 228.434 159.574 227.801V227.531C159.574 226.906 159.496 226.316 159.34 225.762C159.191 225.199 158.965 224.703 158.66 224.273C158.363 223.836 157.988 223.492 157.535 223.242C157.09 222.992 156.566 222.867 155.965 222.867C155.371 222.867 154.848 222.992 154.395 223.242C153.949 223.492 153.574 223.836 153.27 224.273C152.973 224.703 152.75 225.199 152.602 225.762C152.453 226.316 152.379 226.906 152.379 227.531ZM171.855 230.637C171.855 230.324 171.785 230.035 171.645 229.77C171.512 229.496 171.234 229.25 170.812 229.031C170.398 228.805 169.773 228.609 168.938 228.445C168.234 228.297 167.598 228.121 167.027 227.918C166.465 227.715 165.984 227.469 165.586 227.18C165.195 226.891 164.895 226.551 164.684 226.16C164.473 225.77 164.367 225.312 164.367 224.789C164.367 224.289 164.477 223.816 164.695 223.371C164.922 222.926 165.238 222.531 165.645 222.188C166.059 221.844 166.555 221.574 167.133 221.379C167.711 221.184 168.355 221.086 169.066 221.086C170.082 221.086 170.949 221.266 171.668 221.625C172.387 221.984 172.938 222.465 173.32 223.066C173.703 223.66 173.895 224.32 173.895 225.047H171.727C171.727 224.695 171.621 224.355 171.41 224.027C171.207 223.691 170.906 223.414 170.508 223.195C170.117 222.977 169.637 222.867 169.066 222.867C168.465 222.867 167.977 222.961 167.602 223.148C167.234 223.328 166.965 223.559 166.793 223.84C166.629 224.121 166.547 224.418 166.547 224.73C166.547 224.965 166.586 225.176 166.664 225.363C166.75 225.543 166.898 225.711 167.109 225.867C167.32 226.016 167.617 226.156 168 226.289C168.383 226.422 168.871 226.555 169.465 226.688C170.504 226.922 171.359 227.203 172.031 227.531C172.703 227.859 173.203 228.262 173.531 228.738C173.859 229.215 174.023 229.793 174.023 230.473C174.023 231.027 173.906 231.535 173.672 231.996C173.445 232.457 173.113 232.855 172.676 233.191C172.246 233.52 171.73 233.777 171.129 233.965C170.535 234.145 169.867 234.234 169.125 234.234C168.008 234.234 167.062 234.035 166.289 233.637C165.516 233.238 164.93 232.723 164.531 232.09C164.133 231.457 163.934 230.789 163.934 230.086H166.113C166.145 230.68 166.316 231.152 166.629 231.504C166.941 231.848 167.324 232.094 167.777 232.242C168.23 232.383 168.68 232.453 169.125 232.453C169.719 232.453 170.215 232.375 170.613 232.219C171.02 232.062 171.328 231.848 171.539 231.574C171.75 231.301 171.855 230.988 171.855 230.637ZM182.18 221.32V222.984H175.324V221.32H182.18ZM177.645 218.238H179.812V230.859C179.812 231.289 179.879 231.613 180.012 231.832C180.145 232.051 180.316 232.195 180.527 232.266C180.738 232.336 180.965 232.371 181.207 232.371C181.387 232.371 181.574 232.355 181.77 232.324C181.973 232.285 182.125 232.254 182.227 232.23L182.238 234C182.066 234.055 181.84 234.105 181.559 234.152C181.285 234.207 180.953 234.234 180.562 234.234C180.031 234.234 179.543 234.129 179.098 233.918C178.652 233.707 178.297 233.355 178.031 232.863C177.773 232.363 177.645 231.691 177.645 230.848V218.238Z" fill="#8094B3"/>
<g opacity="0.6">
<path d="M8.73483 24.0272C27.5858 60.7514 107.821 58.5414 107.821 121.503H110.445C110.445 43.2882 6.28764 29.4316 0.887895 0C0.887895 0 -2.49924 19.2423 3.95766 38.856C11.1864 48.9528 18.7989 50.5103 18.7989 50.5103C18.7989 50.5103 10.6346 49.0905 5.37865 42.7679C11.3744 57.7742 23.669 72.2624 48.2172 77.7384C52.458 78.6842 56.376 79.7291 59.9986 80.8501C59.9986 80.8501 67.589 77.6635 74.2693 80.8501C74.2693 80.8501 68.5876 78.6081 62.8484 81.7672C99.1935 93.9241 103.559 113.671 103.559 113.671C102.021 61.8482 20.5771 58.4763 8.73483 24.0272Z" fill="#4F6484" fill-opacity="0.6"/>
<path d="M128.887 136.869H127.529C127.077 136.869 126.711 136.504 126.711 136.054V134.592C126.711 134.143 127.077 133.778 127.529 133.778C128.396 133.778 129.098 133.078 129.098 132.214V132.135C129.098 131.271 128.396 130.571 127.529 130.571C127.077 130.571 126.711 130.206 126.711 129.757V127.32C126.711 125.597 125.31 124.2 123.582 124.2H94.6867C92.9583 124.2 91.5572 125.597 91.5572 127.32V129.757C91.5572 130.206 91.1912 130.571 90.74 130.571C89.873 130.571 89.1708 131.271 89.1708 132.135V132.214C89.1708 133.078 89.873 133.778 90.74 133.778C91.1912 133.778 91.5572 134.143 91.5572 134.592V136.054C91.5572 136.504 91.1912 136.869 90.74 136.869H89.382C81.1956 136.869 75.0196 144.276 76.518 152.298L79.6286 168.961C80.1517 171.76 82.6011 173.79 85.4574 173.79H132.81C135.666 173.79 138.117 171.761 138.639 168.961L141.749 152.298C143.248 144.277 137.072 136.869 128.887 136.869Z" fill="#4F6484" fill-opacity="0.6"/>
<path d="M84.9323 168.626L81.8217 151.963C81.2079 148.677 82.0859 145.317 84.229 142.746C86.3721 140.175 89.5248 138.7 92.8788 138.7H94.2367C95.7009 138.7 96.8929 137.513 96.8929 136.053V134.591C96.8929 133.514 96.2449 132.586 95.3171 132.173C96.2449 131.759 96.8929 130.831 96.8929 129.754V127.317C96.8929 126.607 97.4724 126.03 98.1845 126.03H96.3433C95.6312 126.03 95.0517 126.607 95.0517 127.317V129.754C95.0517 130.831 94.4037 131.759 93.4759 132.173C94.4037 132.586 95.0517 133.514 95.0517 134.591V136.053C95.0517 137.512 93.8608 138.7 92.3955 138.7H91.0376C87.6836 138.7 84.5309 140.175 82.3878 142.746C80.2447 145.316 79.3667 148.676 79.9805 151.963L83.0911 168.626C83.4516 170.556 85.1436 171.958 87.113 171.958H88.9542C86.9836 171.957 85.2928 170.556 84.9323 168.626Z" fill="white"/>
<path d="M133.336 168.626L136.447 151.963C137.061 148.677 136.183 145.317 134.039 142.746C131.896 140.175 128.744 138.7 125.39 138.7H124.032C122.568 138.7 121.376 137.513 121.376 136.053V134.591C121.376 133.514 122.024 132.586 122.951 132.173C122.024 131.759 121.376 130.831 121.376 129.754V127.317C121.376 126.607 120.796 126.03 120.084 126.03H121.925C122.637 126.03 123.217 126.607 123.217 127.317V129.754C123.217 130.831 123.865 131.759 124.793 132.173C123.865 132.586 123.217 133.514 123.217 134.591V136.053C123.217 137.512 124.408 138.7 125.873 138.7H127.231C130.585 138.7 133.738 140.175 135.881 142.746C138.024 145.316 138.902 148.676 138.288 151.963L135.177 168.626C134.817 170.556 133.125 171.958 131.155 171.958H129.314C131.285 171.957 132.976 170.556 133.336 168.626Z" fill="white"/>
<path d="M107.203 176C148.139 176 181.325 175.453 181.325 174.778C181.325 174.103 148.139 173.556 107.203 173.556C66.2659 173.556 33.0801 174.103 33.0801 174.778C33.0801 175.453 66.2659 176 107.203 176Z" fill="#4F6484" fill-opacity="0.6"/>
<path d="M102.111 132.173C103.261 131.942 104.413 131.828 105.563 131.741C106.713 131.66 107.864 131.623 109.014 131.622C110.164 131.621 111.315 131.658 112.465 131.74C113.615 131.826 114.766 131.941 115.916 132.173C114.766 132.404 113.615 132.52 112.465 132.606C111.315 132.687 110.164 132.725 109.014 132.724C107.864 132.723 106.713 132.685 105.563 132.605C104.413 132.519 103.261 132.403 102.111 132.173Z" fill="white"/>
<path d="M99.7207 138.702C101.27 138.473 102.818 138.354 104.367 138.269C105.917 138.189 107.465 138.152 109.014 138.15C110.563 138.149 112.111 138.187 113.661 138.268C115.21 138.353 116.758 138.472 118.307 138.702C116.758 138.931 115.21 139.05 113.661 139.135C112.111 139.215 110.563 139.253 109.014 139.253C107.465 139.252 105.917 139.214 104.367 139.134C102.818 139.048 101.27 138.93 99.7207 138.702Z" fill="white"/>
</g>
</svg>
