<svg width="152" height="40" viewBox="0 0 152 40" fill="none" xmlns="http://www.w3.org/2000/svg">
<path fill-rule="evenodd" clip-rule="evenodd" d="M20.7087 3.30656C20.7087 5.90722 17.9576 7.82056 15.4667 5.74003C13.552 3.00934 15.2994 0 17.6787 0C19.3517 0 20.7087 1.48609 20.7087 3.30656Z" fill="#EB2027"/>
<path fill-rule="evenodd" clip-rule="evenodd" d="M20.7084 35.7403C20.7084 37.5794 19.3514 39.0469 17.6784 39.0469C16.0054 39.0469 14.6484 37.5608 14.6484 35.7403C14.6484 33.9013 16.0054 32.4338 17.6784 32.4338C19.3514 32.4152 20.7084 33.9013 20.7084 35.7403Z" fill="#EB2027"/>
<path fill-rule="evenodd" clip-rule="evenodd" d="M13.3839 27.3436C13.3839 29.1827 12.0269 30.6502 10.3539 30.6502C8.68092 30.6502 7.32394 29.1641 7.32394 27.3436C7.32394 25.5046 8.68092 24.0371 10.3539 24.0371C13.2537 24.0371 14.6479 23.4798 14.6479 19.616C14.6479 15.9379 13.4954 14.6375 10.3539 14.6375C6.82205 14.6375 6.05991 16.4023 6.05991 19.616C6.05991 21.455 4.70294 22.9225 3.02996 22.9225C1.35697 22.9225 0 21.4364 0 19.616C0 17.7955 1.35697 16.3094 3.02996 16.3094C6.17144 16.3094 7.32394 15.0091 7.32394 11.331C7.32394 9.49195 8.68092 8.00586 10.3539 8.00586C12.0269 8.00586 13.3839 9.49195 13.3839 11.3124C13.3839 14.5075 14.146 16.2908 17.6778 16.2908C20.8193 16.2908 21.9718 14.9905 21.9718 11.3124C21.9718 9.47338 23.3288 8.00586 25.0018 8.00586C26.6748 8.00586 28.0317 9.49195 28.0317 11.3124C28.0317 14.9905 29.1842 16.2908 32.3257 16.2908C33.9987 16.2908 35.3557 17.7769 35.3557 19.5974C35.3557 21.4178 33.9987 22.9039 32.3257 22.9039C30.6528 22.9039 29.2958 21.4178 29.2958 19.5974C29.2958 16.4023 28.5336 14.619 25.0018 14.619C21.4699 14.619 20.7078 16.3837 20.7078 19.5974C20.7078 23.4612 22.0834 24.0185 25.0018 24.0185C26.6748 24.0185 28.0317 25.5046 28.0317 27.3251C28.0317 29.1641 26.6748 30.6316 25.0018 30.6316C23.3288 30.6316 21.9718 29.1455 21.9718 27.3251C21.9718 23.8513 21.0052 22.9039 17.6778 22.9039C14.3505 22.9039 13.3839 23.8699 13.3839 27.3436Z" fill="#1B3F73"/>
<path d="M61.3786 32.4335L61.5459 11.1081L52.4375 32.4335H50.876L42.0836 11.1081V32.4335H39.1094L39.2581 4.29069L44.0726 3.30615L52.9208 24.0743L61.3229 4.29069L66.0258 3.77056L66.602 32.415L61.3786 32.4335Z" fill="#1B3F73"/>
<path d="M90.4706 32.4149L87.0316 22.8297L75.99 22.9783L72.4395 32.4149H68.666L80.2654 4.25354L86.0464 3.30615L96.8465 32.4149H90.4706ZM86.1022 20.1547L81.6595 7.89446L77.0867 20.1547H86.1022Z" fill="#1B3F73"/>
<path d="M120.194 32.3968L116.83 22.8301L106.085 22.9787L102.628 32.3782H98.9473L110.249 4.29113L115.882 3.34375L126.403 32.3968H120.194ZM115.919 20.1551L111.588 7.91348L107.126 20.1551H115.919Z" fill="red"/>
<path d="M140.382 32.3782C137.891 32.3782 135.79 32.0253 134.043 31.3008C132.295 30.5763 130.901 29.5732 129.805 28.2915C128.726 27.0097 127.927 25.4493 127.425 23.6474C126.923 21.8455 126.682 19.8207 126.682 17.6102C126.682 15.8269 126.923 14.2293 127.407 12.8361C127.89 11.4429 128.541 10.1983 129.377 9.15809C130.213 8.09925 131.18 7.20759 132.277 6.46455C133.374 5.7215 134.526 5.12706 135.753 4.66266C136.961 4.19825 138.225 3.86388 139.489 3.65955C140.772 3.45521 142.017 3.34375 143.226 3.34375C143.969 3.34375 144.768 3.36233 145.605 3.39948C146.441 3.43663 147.241 3.49236 148.021 3.56666C148.802 3.64097 149.546 3.71527 150.215 3.80815C150.884 3.90103 151.442 3.99392 151.888 4.06822L150.698 8.09925C150.271 7.96921 149.639 7.85776 148.858 7.70915C148.059 7.57911 147.204 7.44908 146.311 7.31905C145.4 7.18901 144.508 7.09613 143.635 7.00325C142.761 6.92895 142.017 6.87322 141.441 6.87322C140.79 6.87322 140.214 6.8918 139.712 6.91037C139.21 6.94753 138.746 7.00325 138.318 7.09613C137.891 7.18902 137.5 7.31905 137.128 7.48623C136.757 7.65342 136.366 7.85776 135.995 8.09925C135.009 8.69368 134.34 9.82683 133.987 11.48C133.634 13.1333 133.467 15.1953 133.467 17.6845C133.467 21.4926 134.136 24.3719 135.456 26.3224C136.775 28.2729 138.913 29.2574 141.869 29.2574C143.542 29.2574 145.27 29.146 147.073 28.9045C148.877 28.663 150.531 28.3286 151.999 27.9014V30.2605C151.182 30.5949 150.289 30.8735 149.341 31.1336C148.393 31.3937 147.408 31.598 146.404 31.7838C145.4 31.951 144.397 32.0996 143.374 32.1739C142.315 32.3225 141.33 32.3782 140.382 32.3782Z" fill="#1B3F73"/>
<path d="M42.7723 34.2739V37.1904H42.3633V35.0541C42.3633 35.0356 42.3633 34.9984 42.3633 34.9612C42.3633 34.9241 42.3633 34.8869 42.3633 34.8684L41.1551 36.6888C41.1179 36.7446 41.0621 36.7817 40.9878 36.7817H40.9134C40.8391 36.7817 40.7833 36.7446 40.7461 36.6888L39.5193 34.8498C39.5379 34.9241 39.5379 34.9798 39.5379 35.0541V37.1904H39.1289V34.2739H39.4821C39.5193 34.2739 39.5564 34.2739 39.575 34.2739C39.5936 34.2739 39.6308 34.2925 39.6494 34.3297L40.8577 36.1315C40.8762 36.1687 40.8948 36.2058 40.9134 36.243C40.932 36.2802 40.9506 36.3173 40.9692 36.3545C40.9878 36.3173 41.0064 36.2802 41.025 36.243C41.0435 36.2058 41.0621 36.1687 41.0807 36.1315L42.2704 34.3482C42.289 34.3111 42.3076 34.2925 42.3262 34.2925C42.3448 34.2925 42.3819 34.2925 42.4191 34.2925L42.7723 34.2739Z" fill="#58595B"/>
<path d="M46.6399 37.1894H46.2681C46.2309 37.1894 46.1937 37.1894 46.1566 37.1708C46.138 37.1523 46.1008 37.1337 46.1008 37.0965L45.7662 36.3906H44.1862L43.8516 37.0965C43.833 37.1151 43.8144 37.1337 43.7958 37.1708C43.7586 37.1894 43.74 37.1894 43.6843 37.1894H43.3125L44.7252 34.2729H45.2085L46.6399 37.1894ZM45.6361 36.112L45.0784 34.9231C45.0598 34.886 45.0412 34.8488 45.0227 34.7931C45.0041 34.7374 44.9855 34.7002 44.9669 34.6445C44.9297 34.7559 44.8925 34.8488 44.8554 34.9231L44.2977 36.112H45.6361Z" fill="#58595B"/>
<path d="M49.7987 37.1894H49.3711C49.2782 37.1894 49.2224 37.1709 49.1852 37.0965L48.2744 36.0563C48.2372 36.0191 48.2186 36.0006 48.1815 35.982C48.1443 35.9634 48.1071 35.9634 48.0327 35.9634H47.6796V37.1709H47.2148V34.2544H48.2186C48.4417 34.2544 48.6276 34.273 48.7949 34.3101C48.9622 34.3473 49.0923 34.403 49.2038 34.4773C49.3154 34.5516 49.3897 34.6259 49.4455 34.7374C49.5013 34.8303 49.5198 34.9417 49.5198 35.0717C49.5198 35.1832 49.5013 35.2761 49.4641 35.369C49.4269 35.4618 49.3711 35.5362 49.2968 35.6105C49.2224 35.6848 49.1295 35.7405 49.0179 35.7962C48.9064 35.8519 48.7949 35.8891 48.6462 35.9077C48.7019 35.9262 48.7577 35.982 48.7949 36.0377L49.7987 37.1894ZM48.1815 35.6848C48.3116 35.6848 48.4417 35.6662 48.5532 35.6476C48.6648 35.629 48.7391 35.5733 48.8135 35.5361C48.8878 35.4804 48.9436 35.4247 48.9808 35.3504C49.0179 35.2761 49.0365 35.2018 49.0365 35.1089C49.0365 34.9417 48.9622 34.8117 48.8321 34.7188C48.7019 34.6259 48.4789 34.5888 48.2186 34.5888H47.6982V35.6848H48.1815Z" fill="#58595B"/>
<path d="M50.8406 35.5547H51.0265C51.0822 35.5547 51.138 35.5547 51.1752 35.5361C51.2124 35.5176 51.2495 35.499 51.2867 35.4618L52.4578 34.3658C52.495 34.3287 52.5322 34.3101 52.5693 34.2915C52.6065 34.273 52.6437 34.2729 52.6995 34.2729H53.1084L51.77 35.5361C51.7329 35.5733 51.7143 35.5919 51.6771 35.6104C51.6399 35.629 51.6213 35.6476 51.5841 35.6662C51.6213 35.6847 51.6771 35.7033 51.7143 35.7219C51.7514 35.7405 51.7886 35.7776 51.8258 35.8148L53.2199 37.1894H52.811C52.7738 37.1894 52.7552 37.1894 52.7366 37.1894C52.718 37.1894 52.6995 37.1894 52.6809 37.1708C52.6623 37.1708 52.6437 37.1523 52.6437 37.1523C52.6251 37.1523 52.6251 37.1337 52.6065 37.1151L51.3983 35.9634C51.3611 35.9262 51.3239 35.9077 51.2867 35.8891C51.2495 35.8705 51.1938 35.8705 51.1194 35.8705H50.8964V37.208H50.4316V34.2915H50.8964L50.8406 35.5547Z" fill="#58595B"/>
<path d="M55.8956 36.8736V37.1894H53.7207V34.2729H55.8956V34.5887H54.204V35.5547H55.5796V35.8705H54.204V36.8736H55.8956Z" fill="#58595B"/>
<path d="M59.0382 34.6073H57.9043V37.1894H57.4396V34.6073H56.2871V34.2729H59.0382V34.6073Z" fill="#58595B"/>
<path d="M63.5735 37.1894H63.2017C63.1645 37.1894 63.1273 37.1894 63.0902 37.1708C63.053 37.1523 63.0344 37.1337 63.0344 37.0965L62.6998 36.3906H61.1198L60.7852 37.0965C60.7666 37.1151 60.748 37.1337 60.7294 37.1708C60.6922 37.1894 60.6736 37.1894 60.6179 37.1894H60.2461L61.6588 34.2729H62.1421L63.5735 37.1894ZM62.5697 36.112L62.012 34.9231C61.9934 34.886 61.9748 34.8488 61.9563 34.7931C61.9377 34.7374 61.9191 34.7002 61.9005 34.6445C61.8633 34.7559 61.8261 34.8488 61.789 34.9231L61.2313 36.112H62.5697Z" fill="#58595B"/>
<path d="M66.5107 36.595C66.5293 36.595 66.5665 36.595 66.5851 36.6135L66.771 36.7807C66.6223 36.9108 66.455 37.0222 66.2505 37.0965C66.046 37.1708 65.8044 37.208 65.507 37.208C65.2467 37.208 65.0237 37.1708 64.8192 37.0965C64.6147 37.0222 64.4288 36.9293 64.2987 36.7993C64.15 36.6693 64.0385 36.5207 63.9641 36.3349C63.8897 36.1491 63.834 35.9448 63.834 35.7405C63.834 35.5176 63.8712 35.3132 63.9641 35.146C64.0385 34.9603 64.1686 34.8117 64.3173 34.6816C64.466 34.5516 64.6519 34.4401 64.8564 34.3844C65.0608 34.3101 65.3025 34.2729 65.5627 34.2729C65.823 34.2729 66.0274 34.3101 66.2319 34.3658C66.4178 34.4401 66.5851 34.5144 66.7338 34.6445L66.5851 34.8302C66.5665 34.8488 66.5665 34.8488 66.5479 34.8674C66.5293 34.8674 66.5107 34.886 66.4922 34.886C66.455 34.886 66.4364 34.8674 66.3806 34.8488C66.3434 34.8302 66.2877 34.7931 66.2133 34.7559C66.139 34.7188 66.0646 34.7002 65.9531 34.663C65.8416 34.6445 65.73 34.6259 65.5813 34.6259C65.3954 34.6259 65.2281 34.6445 65.0794 34.7002C64.9307 34.7559 64.8006 34.8302 64.6891 34.9231C64.5775 35.016 64.5032 35.146 64.4288 35.2761C64.3731 35.4247 64.3359 35.5733 64.3359 35.759C64.3359 35.9448 64.3731 36.112 64.4288 36.242C64.4846 36.3906 64.5775 36.5021 64.6891 36.595C64.8006 36.6879 64.9307 36.7622 65.0794 36.8179C65.2281 36.8736 65.3954 36.8922 65.5627 36.8922C65.6743 36.8922 65.7672 36.8922 65.8416 36.8736C65.9345 36.8736 66.0088 36.855 66.0832 36.8179C66.1576 36.7993 66.2133 36.7622 66.2877 36.7436C66.3434 36.7064 66.4178 36.6693 66.4736 36.6321C66.455 36.595 66.4922 36.595 66.5107 36.595Z" fill="#58595B"/>
<path d="M69.8193 36.595C69.8379 36.595 69.8751 36.595 69.8937 36.6135L70.0796 36.7807C69.9309 36.9108 69.7636 37.0222 69.5591 37.0965C69.3546 37.1708 69.113 37.208 68.8156 37.208C68.5553 37.208 68.3322 37.1708 68.1278 37.0965C67.9233 37.0222 67.7374 36.9293 67.6073 36.7993C67.4586 36.6693 67.347 36.5207 67.2727 36.3349C67.1983 36.1491 67.1426 35.9448 67.1426 35.7405C67.1426 35.5176 67.1798 35.3132 67.2727 35.146C67.347 34.9603 67.4772 34.8117 67.6259 34.6816C67.7746 34.5516 67.9605 34.4401 68.165 34.3844C68.3694 34.3101 68.6111 34.2729 68.8713 34.2729C69.1316 34.2729 69.336 34.3101 69.5405 34.3658C69.7264 34.4401 69.8937 34.5144 70.0424 34.6445L69.8937 34.8302C69.8751 34.8488 69.8751 34.8488 69.8565 34.8674C69.8379 34.8674 69.8193 34.886 69.8008 34.886C69.7636 34.886 69.745 34.8674 69.6892 34.8488C69.652 34.8302 69.5963 34.7931 69.5219 34.7559C69.4476 34.7188 69.3732 34.7002 69.2617 34.663C69.1502 34.6445 69.0386 34.6259 68.8899 34.6259C68.704 34.6259 68.5367 34.6445 68.388 34.7002C68.2393 34.7559 68.1092 34.8302 67.9977 34.9231C67.8861 35.016 67.8118 35.146 67.7374 35.2761C67.6816 35.4247 67.6445 35.5733 67.6445 35.759C67.6445 35.9448 67.6816 36.112 67.7374 36.242C67.7932 36.3906 67.8861 36.5021 67.9977 36.595C68.1092 36.6879 68.2393 36.7622 68.388 36.8179C68.5367 36.8736 68.704 36.8922 68.8713 36.8922C68.9829 36.8922 69.0758 36.8922 69.1501 36.8736C69.2431 36.8736 69.3175 36.855 69.3918 36.8179C69.4662 36.7993 69.5219 36.7622 69.5963 36.7436C69.652 36.7064 69.7264 36.6693 69.7822 36.6321C69.7636 36.595 69.8008 36.595 69.8193 36.595Z" fill="#58595B"/>
<path d="M72.9053 36.8736V37.1894H70.7305V34.2729H72.9053V34.5887H71.2138V35.5547H72.5893V35.8705H71.2138V36.8736H72.9053Z" fill="#58595B"/>
<path d="M75.4707 34.7369C75.4521 34.7555 75.4335 34.7741 75.4149 34.7741C75.3963 34.7741 75.3777 34.7927 75.3591 34.7927C75.322 34.7927 75.3034 34.7741 75.2662 34.7555C75.229 34.737 75.1733 34.6998 75.1175 34.6812C75.0617 34.6626 74.9874 34.6255 74.913 34.6069C74.8387 34.5883 74.7457 34.5698 74.6156 34.5698C74.5041 34.5698 74.4111 34.5883 74.3368 34.6069C74.2624 34.6255 74.1881 34.6626 74.1323 34.6998C74.0765 34.737 74.0393 34.7927 74.0022 34.8484C73.965 34.9041 73.965 34.9599 73.965 35.0342C73.965 35.1085 73.9836 35.1828 74.0393 35.2385C74.0951 35.2942 74.1509 35.3314 74.2252 35.3685C74.2996 35.4057 74.3925 35.4428 74.4855 35.4614C74.5784 35.48 74.6899 35.5172 74.8015 35.5543C74.913 35.5915 75.006 35.61 75.1175 35.6472C75.2104 35.6843 75.3034 35.7401 75.3777 35.7958C75.4521 35.8515 75.5264 35.9258 75.5636 36.0001C75.6194 36.0744 75.638 36.1859 75.638 36.2973C75.638 36.4274 75.6194 36.5388 75.5636 36.6503C75.5079 36.7618 75.4335 36.8546 75.3406 36.9475C75.2476 37.0218 75.1175 37.0961 74.9688 37.1519C74.8201 37.2076 74.6528 37.2262 74.4669 37.2262C74.2438 37.2262 74.0208 37.189 73.8349 37.1147C73.649 37.0404 73.4817 36.9475 73.3516 36.8361L73.4817 36.6503C73.5003 36.6317 73.5189 36.6317 73.5374 36.6131C73.556 36.6131 73.5746 36.5946 73.5932 36.5946C73.6118 36.5946 73.649 36.5946 73.6676 36.6131C73.7047 36.6317 73.7233 36.6503 73.7605 36.6689C73.7977 36.6874 73.8349 36.706 73.872 36.7432C73.9092 36.7618 73.965 36.7989 74.0208 36.8175C74.0765 36.8361 74.1509 36.8546 74.2066 36.8732C74.281 36.8918 74.3554 36.8918 74.4483 36.8918C74.5598 36.8918 74.6714 36.8732 74.7457 36.8546C74.8387 36.8361 74.913 36.7989 74.9688 36.7432C75.0245 36.6874 75.0803 36.6317 75.1175 36.576C75.1547 36.5017 75.1733 36.446 75.1733 36.3531C75.1733 36.2602 75.1547 36.1859 75.0989 36.1302C75.0431 36.0744 74.9874 36.0187 74.913 35.9816C74.8387 35.9444 74.7457 35.9073 74.6528 35.8887C74.5598 35.8701 74.4483 35.8329 74.3368 35.8144C74.2252 35.7958 74.1323 35.7586 74.0208 35.7215C73.9092 35.6843 73.8349 35.6286 73.7605 35.5729C73.6862 35.5171 73.6118 35.4428 73.5746 35.35C73.5189 35.2571 73.5003 35.1456 73.5003 35.0156C73.5003 34.9041 73.5189 34.8113 73.5746 34.7184C73.6304 34.6255 73.6862 34.5326 73.7791 34.4583C73.872 34.384 73.9836 34.3283 74.1137 34.2725C74.2438 34.2354 74.4111 34.1982 74.5784 34.1982C74.7829 34.1982 74.9502 34.2168 75.1175 34.2725C75.2848 34.3283 75.4149 34.4026 75.545 34.4955L75.4707 34.7369Z" fill="#58595B"/>
<path d="M78.2207 34.7369C78.2021 34.7555 78.1835 34.7741 78.1649 34.7741C78.1463 34.7741 78.1277 34.7927 78.1091 34.7927C78.072 34.7927 78.0534 34.7741 78.0162 34.7555C77.979 34.737 77.9233 34.6998 77.8675 34.6812C77.8117 34.6626 77.7374 34.6255 77.663 34.6069C77.5887 34.5883 77.4957 34.5698 77.3656 34.5698C77.2541 34.5698 77.1611 34.5883 77.0868 34.6069C77.0124 34.6255 76.9381 34.6626 76.8823 34.6998C76.8265 34.737 76.7893 34.7927 76.7522 34.8484C76.715 34.9041 76.715 34.9599 76.715 35.0342C76.715 35.1085 76.7336 35.1828 76.7893 35.2385C76.8451 35.2942 76.9009 35.3314 76.9752 35.3685C77.0496 35.4057 77.1425 35.4428 77.2355 35.4614C77.3284 35.48 77.4399 35.5172 77.5515 35.5543C77.663 35.5915 77.756 35.61 77.8675 35.6472C77.9604 35.6843 78.0534 35.7401 78.1277 35.7958C78.2021 35.8515 78.2764 35.9258 78.3136 36.0001C78.3694 36.0744 78.388 36.1859 78.388 36.2973C78.388 36.4274 78.3694 36.5388 78.3136 36.6503C78.2579 36.7618 78.1835 36.8546 78.0905 36.9475C77.9976 37.0218 77.8675 37.0961 77.7188 37.1519C77.5701 37.2076 77.4028 37.2262 77.2169 37.2262C76.9938 37.2262 76.7708 37.189 76.5849 37.1147C76.399 37.0404 76.2317 36.9475 76.1016 36.8361L76.2317 36.6503C76.2503 36.6317 76.2689 36.6317 76.2874 36.6131C76.306 36.6131 76.3246 36.5946 76.3432 36.5946C76.3618 36.5946 76.399 36.5946 76.4176 36.6131C76.4547 36.6317 76.4733 36.6503 76.5105 36.6689C76.5477 36.6874 76.5849 36.706 76.622 36.7432C76.6592 36.7618 76.715 36.7989 76.7708 36.8175C76.8265 36.8361 76.9009 36.8546 76.9566 36.8732C77.031 36.8918 77.1054 36.8918 77.1983 36.8918C77.3098 36.8918 77.4214 36.8732 77.4957 36.8546C77.5887 36.8361 77.663 36.7989 77.7188 36.7432C77.7745 36.6874 77.8303 36.6317 77.8675 36.576C77.9047 36.5017 77.9233 36.446 77.9233 36.3531C77.9233 36.2602 77.9047 36.1859 77.8489 36.1302C77.7931 36.0744 77.7374 36.0187 77.663 35.9816C77.5887 35.9444 77.4957 35.9073 77.4028 35.8887C77.3098 35.8701 77.1983 35.8329 77.0868 35.8144C76.9752 35.7958 76.8823 35.7586 76.7708 35.7215C76.6778 35.6843 76.5849 35.6286 76.5105 35.5729C76.4362 35.5171 76.3618 35.4428 76.3246 35.35C76.2874 35.2571 76.2503 35.1456 76.2503 35.0156C76.2503 34.9041 76.2689 34.8113 76.3246 34.7184C76.3804 34.6255 76.4362 34.5326 76.5291 34.4583C76.622 34.384 76.7336 34.3283 76.8637 34.2725C76.9938 34.2354 77.1611 34.1982 77.3284 34.1982C77.5329 34.1982 77.7002 34.2168 77.8675 34.2725C78.0348 34.3283 78.1649 34.4026 78.295 34.4955L78.2207 34.7369Z" fill="#58595B"/>
<path d="M83.2395 37.1894H82.8677C82.8305 37.1894 82.7933 37.1894 82.7562 37.1708C82.719 37.1523 82.7004 37.1337 82.7004 37.0965L82.3658 36.3906H80.7858L80.4512 37.0965C80.4326 37.1151 80.414 37.1337 80.3954 37.1708C80.3582 37.1894 80.3396 37.1894 80.2839 37.1894H79.9121L81.3248 34.2729H81.8081L83.2395 37.1894ZM82.2543 36.112L81.6966 34.9231C81.678 34.886 81.6594 34.8488 81.6409 34.7931C81.6223 34.7374 81.6037 34.7002 81.5851 34.6445C81.5479 34.7559 81.5107 34.8488 81.4736 34.9231L80.9159 36.112H82.2543Z" fill="#58595B"/>
<path d="M86.6595 34.273V37.1894H86.4179C86.3807 37.1894 86.3435 37.1894 86.325 37.1709C86.3064 37.1523 86.2692 37.1337 86.2506 37.1151L84.2058 34.9231C84.2058 34.9603 84.2058 34.9974 84.2058 35.016C84.2058 35.0346 84.2058 35.0717 84.2058 35.1089V37.1894H83.7969V34.273H84.0385C84.0571 34.273 84.0757 34.273 84.0943 34.273C84.1129 34.273 84.1315 34.273 84.1315 34.273C84.1501 34.273 84.1501 34.2915 84.1687 34.2915C84.1872 34.2915 84.1872 34.3101 84.2058 34.3287L86.2506 36.5207C86.2506 36.4835 86.2506 36.4464 86.2506 36.4092C86.2506 36.3721 86.2506 36.3535 86.2506 36.3163V34.2544L86.6595 34.273Z" fill="#58595B"/>
<path d="M90.5266 37.1894H90.1548C90.1176 37.1894 90.0805 37.1894 90.0433 37.1708C90.0061 37.1523 89.9875 37.1337 89.9875 37.0965L89.6529 36.3906H88.0729L87.7383 37.0965C87.7197 37.1151 87.7011 37.1337 87.6825 37.1708C87.6453 37.1894 87.6268 37.1894 87.571 37.1894H87.1992L88.612 34.2729H89.0953L90.5266 37.1894ZM89.5228 36.112L88.9651 34.9231C88.9466 34.886 88.928 34.8488 88.9094 34.7931C88.8908 34.7374 88.8722 34.7002 88.8536 34.6445C88.8164 34.7559 88.7793 34.8488 88.7421 34.9231L88.1844 36.112H89.5228Z" fill="#58595B"/>
<path d="M93.073 36.855V37.1894H91.084V34.2729H91.5487V36.855H93.073Z" fill="#58595B"/>
<path d="M94.5609 36.0377V37.208H94.0775V36.0377L92.7949 34.2915H93.2039C93.2411 34.2915 93.2782 34.2915 93.2968 34.3101C93.3154 34.3287 93.3526 34.3472 93.3526 34.3844L94.1519 35.5175C94.1891 35.5733 94.2077 35.6104 94.2263 35.6476C94.2448 35.6847 94.282 35.7404 94.282 35.7776C94.3006 35.7404 94.3192 35.6847 94.3378 35.6476C94.3564 35.6104 94.3936 35.5547 94.4121 35.5175L95.2115 34.3844C95.23 34.3658 95.2486 34.3472 95.2672 34.3287C95.2858 34.3101 95.323 34.3101 95.3602 34.3101H95.7877L94.5609 36.0377Z" fill="#58595B"/>
<path d="M98.7804 34.6073H97.6465V37.1894H97.1818V34.6073H96.0293V34.2729H98.7804V34.6073Z" fill="#58595B"/>
<path d="M99.8759 37.1894H99.3926V34.2729H99.8759V37.1894Z" fill="#58595B"/>
<path d="M103.355 36.595C103.373 36.595 103.41 36.595 103.429 36.6135L103.615 36.7807C103.466 36.9108 103.299 37.0222 103.094 37.0965C102.89 37.1708 102.648 37.208 102.351 37.208C102.09 37.208 101.867 37.1708 101.663 37.0965C101.458 37.0222 101.273 36.9293 101.142 36.7993C100.994 36.6693 100.882 36.5207 100.808 36.3349C100.734 36.1491 100.678 35.9448 100.678 35.7405C100.678 35.5176 100.715 35.3132 100.808 35.146C100.882 34.9603 101.012 34.8117 101.161 34.6816C101.31 34.5516 101.496 34.4401 101.7 34.3844C101.905 34.3101 102.146 34.2729 102.406 34.2729C102.667 34.2729 102.871 34.3101 103.076 34.3658C103.262 34.4401 103.429 34.5144 103.578 34.6445L103.429 34.8302C103.41 34.8488 103.41 34.8488 103.392 34.8674C103.373 34.8674 103.355 34.886 103.336 34.886C103.299 34.886 103.28 34.8674 103.224 34.8488C103.187 34.8302 103.131 34.7931 103.057 34.7559C102.983 34.7188 102.908 34.7002 102.797 34.663C102.685 34.6259 102.574 34.6259 102.425 34.6259C102.239 34.6259 102.072 34.6445 101.923 34.7002C101.774 34.7559 101.644 34.8302 101.533 34.9231C101.421 35.016 101.347 35.146 101.273 35.2761C101.217 35.4247 101.18 35.5733 101.18 35.759C101.18 35.9448 101.217 36.112 101.273 36.242C101.328 36.3906 101.421 36.5021 101.533 36.595C101.644 36.6879 101.774 36.7622 101.923 36.8179C102.072 36.8736 102.239 36.8922 102.406 36.8922C102.518 36.8922 102.611 36.8922 102.685 36.8736C102.778 36.8736 102.853 36.855 102.927 36.8179C103.001 36.7993 103.057 36.7622 103.131 36.7436C103.206 36.725 103.262 36.6693 103.317 36.6321C103.299 36.595 103.317 36.595 103.355 36.595Z" fill="#58595B"/>
<path d="M106.049 34.7369C106.03 34.7555 106.012 34.7741 105.993 34.7741C105.974 34.7741 105.956 34.7927 105.937 34.7927C105.9 34.7927 105.881 34.7741 105.844 34.7555C105.807 34.737 105.751 34.6998 105.696 34.6812C105.64 34.6626 105.565 34.6255 105.491 34.6069C105.417 34.5883 105.324 34.5698 105.194 34.5698C105.082 34.5698 104.989 34.5883 104.915 34.6069C104.841 34.6255 104.766 34.6626 104.71 34.6998C104.655 34.737 104.617 34.7927 104.58 34.8484C104.543 34.9041 104.543 34.9599 104.543 35.0342C104.543 35.1085 104.562 35.1828 104.617 35.2385C104.673 35.2942 104.729 35.3314 104.803 35.3685C104.878 35.4057 104.971 35.4428 105.064 35.4614C105.157 35.48 105.268 35.5172 105.38 35.5543C105.491 35.5915 105.584 35.61 105.696 35.6472C105.789 35.6843 105.881 35.7401 105.956 35.7958C106.03 35.8515 106.105 35.9258 106.142 36.0001C106.197 36.0744 106.216 36.1859 106.216 36.2973C106.216 36.4274 106.197 36.5388 106.142 36.6503C106.086 36.7618 106.012 36.8546 105.919 36.9475C105.826 37.0218 105.696 37.0961 105.547 37.1519C105.398 37.2076 105.231 37.2262 105.045 37.2262C104.822 37.2262 104.599 37.189 104.413 37.1147C104.227 37.0404 104.06 36.9475 103.93 36.8361L104.06 36.6503C104.078 36.6317 104.097 36.6317 104.116 36.6131C104.134 36.6131 104.153 36.5946 104.171 36.5946C104.19 36.5946 104.227 36.5946 104.246 36.6131C104.283 36.6317 104.301 36.6503 104.339 36.6689C104.376 36.6874 104.413 36.706 104.45 36.7432C104.487 36.7618 104.543 36.7989 104.599 36.8175C104.655 36.8361 104.729 36.8546 104.785 36.8732C104.859 36.8918 104.933 36.8918 105.026 36.8918C105.138 36.8918 105.249 36.8732 105.324 36.8546C105.417 36.8361 105.491 36.7989 105.547 36.7432C105.603 36.6874 105.658 36.6317 105.696 36.576C105.733 36.5017 105.751 36.446 105.751 36.3531C105.751 36.2602 105.733 36.1859 105.677 36.1302C105.621 36.0744 105.565 36.0187 105.491 35.9816C105.417 35.9444 105.324 35.9073 105.231 35.8887C105.138 35.8701 105.026 35.8329 104.915 35.8144C104.803 35.7958 104.71 35.7586 104.599 35.7215C104.487 35.6843 104.413 35.6286 104.339 35.5729C104.264 35.5171 104.19 35.4428 104.153 35.35C104.116 35.2571 104.078 35.1456 104.078 35.0156C104.078 34.9041 104.097 34.8113 104.153 34.7184C104.209 34.6255 104.264 34.5326 104.357 34.4583C104.45 34.384 104.562 34.3283 104.692 34.2725C104.822 34.2354 104.989 34.1982 105.157 34.1982C105.361 34.1982 105.528 34.2168 105.696 34.2725C105.863 34.3283 105.993 34.4026 106.123 34.4955L106.049 34.7369Z" fill="#58595B"/>
<path d="M111.068 37.1894H110.696C110.659 37.1894 110.621 37.1894 110.584 37.1708C110.566 37.1523 110.529 37.1337 110.529 37.0965L110.194 36.3906H108.614L108.279 37.0965C108.261 37.1151 108.242 37.1337 108.224 37.1708C108.186 37.1894 108.168 37.1894 108.112 37.1894H107.74L109.153 34.2729H109.636L111.068 37.1894ZM110.082 36.112L109.525 34.9231C109.506 34.886 109.488 34.8488 109.469 34.7931C109.45 34.7374 109.432 34.7002 109.413 34.6445C109.376 34.7559 109.339 34.8488 109.302 34.9231L108.744 36.112H110.082Z" fill="#58595B"/>
<path d="M114.488 34.273V37.1894H114.246C114.209 37.1894 114.172 37.1894 114.153 37.1709C114.134 37.1523 114.097 37.1337 114.079 37.1151L112.034 34.9231C112.034 34.9603 112.034 34.9974 112.034 35.016C112.034 35.0346 112.034 35.0717 112.034 35.1089V37.1894H111.625V34.273H111.867C111.885 34.273 111.904 34.273 111.922 34.273C111.941 34.273 111.96 34.273 111.96 34.273C111.978 34.273 111.978 34.2915 111.997 34.2915C112.015 34.2915 112.015 34.3101 112.034 34.3287L114.079 36.5207C114.079 36.4835 114.079 36.4464 114.079 36.4092C114.079 36.3721 114.079 36.3535 114.079 36.3163V34.2544L114.488 34.273Z" fill="#58595B"/>
<path d="M118.54 35.7404C118.54 35.9634 118.503 36.1491 118.41 36.3349C118.335 36.5206 118.205 36.6693 118.056 36.7993C117.908 36.9293 117.722 37.0222 117.499 37.0965C117.276 37.1708 117.053 37.208 116.792 37.208H115.473V34.2915H116.792C117.053 34.2915 117.294 34.3287 117.499 34.403C117.722 34.4773 117.889 34.5701 118.056 34.7002C118.205 34.8302 118.317 34.9788 118.41 35.1646C118.484 35.3132 118.54 35.5175 118.54 35.7404ZM118.038 35.7404C118.038 35.5547 118.001 35.4061 117.945 35.2575C117.889 35.1089 117.796 34.9974 117.685 34.9045C117.573 34.8116 117.443 34.7373 117.294 34.6816C117.146 34.6259 116.96 34.6073 116.774 34.6073H115.937V36.8922H116.774C116.96 36.8922 117.127 36.8736 117.294 36.8179C117.443 36.7621 117.573 36.6878 117.685 36.5949C117.796 36.5021 117.871 36.372 117.945 36.242C118.019 36.0748 118.038 35.9076 118.038 35.7404Z" fill="#58595B"/>
<path d="M123.151 36.595C123.17 36.595 123.207 36.595 123.226 36.6135L123.412 36.7807C123.263 36.9108 123.096 37.0222 122.891 37.0965C122.687 37.1708 122.445 37.208 122.148 37.208C121.887 37.208 121.664 37.1708 121.46 37.0965C121.255 37.0222 121.069 36.9293 120.939 36.7993C120.791 36.6693 120.679 36.5207 120.605 36.3349C120.53 36.1491 120.475 35.9448 120.475 35.7405C120.475 35.5176 120.512 35.3132 120.605 35.146C120.679 34.9603 120.809 34.8117 120.958 34.6816C121.107 34.5516 121.293 34.4401 121.497 34.3844C121.701 34.3101 121.943 34.2729 122.203 34.2729C122.464 34.2729 122.668 34.3101 122.873 34.3658C123.058 34.4401 123.226 34.5144 123.374 34.6445L123.226 34.8302C123.207 34.8488 123.207 34.8488 123.189 34.8674C123.17 34.8674 123.151 34.886 123.133 34.886C123.096 34.886 123.077 34.8674 123.021 34.8488C122.984 34.8302 122.928 34.7931 122.854 34.7559C122.78 34.7188 122.705 34.7002 122.594 34.663C122.482 34.6445 122.371 34.6259 122.222 34.6259C122.036 34.6259 121.869 34.6445 121.72 34.7002C121.571 34.7559 121.441 34.8302 121.33 34.9231C121.218 35.016 121.144 35.146 121.069 35.2761C121.014 35.4247 120.977 35.5733 120.977 35.759C120.977 35.9448 121.014 36.112 121.069 36.242C121.125 36.3906 121.218 36.5021 121.33 36.595C121.441 36.6879 121.571 36.7622 121.72 36.8179C121.869 36.8736 122.036 36.8922 122.203 36.8922C122.315 36.8922 122.408 36.8922 122.482 36.8736C122.575 36.8736 122.649 36.855 122.724 36.8179C122.798 36.7993 122.854 36.7622 122.928 36.7436C122.984 36.7064 123.058 36.6693 123.114 36.6321C123.096 36.595 123.114 36.595 123.151 36.595Z" fill="#58595B"/>
<path d="M127.239 35.7405C127.239 35.9634 127.202 36.1677 127.109 36.3349C127.034 36.5207 126.904 36.6693 126.756 36.7993C126.607 36.9294 126.421 37.0408 126.198 37.0965C125.975 37.1709 125.752 37.208 125.491 37.208C125.231 37.208 124.99 37.1709 124.785 37.0965C124.581 37.0222 124.395 36.9294 124.227 36.7993C124.079 36.6693 123.967 36.5021 123.874 36.3349C123.8 36.1492 123.744 35.9448 123.744 35.7405C123.744 35.5362 123.781 35.3132 123.874 35.1461C123.949 34.9603 124.079 34.8117 124.227 34.6816C124.376 34.5516 124.562 34.4402 124.785 34.3658C124.99 34.2915 125.231 34.2544 125.491 34.2544C125.752 34.2544 125.993 34.2915 126.198 34.3658C126.421 34.4402 126.588 34.533 126.756 34.6816C126.904 34.8117 127.016 34.9789 127.109 35.1461C127.202 35.3132 127.239 35.5176 127.239 35.7405ZM126.737 35.7405C126.737 35.5547 126.7 35.4061 126.644 35.2575C126.588 35.1089 126.495 34.9974 126.384 34.9046C126.272 34.8117 126.142 34.7374 125.993 34.6816C125.845 34.6259 125.659 34.6073 125.473 34.6073C125.287 34.6073 125.12 34.6259 124.952 34.6816C124.804 34.7374 124.674 34.8117 124.562 34.9046C124.451 34.9974 124.376 35.1275 124.302 35.2575C124.246 35.4061 124.209 35.5547 124.209 35.7405C124.209 35.9262 124.246 36.0749 124.302 36.2235C124.358 36.3721 124.451 36.4835 124.562 36.5764C124.674 36.6693 124.804 36.7436 124.952 36.7993C125.101 36.8551 125.287 36.8736 125.473 36.8736C125.659 36.8736 125.826 36.8551 125.993 36.7993C126.161 36.7436 126.272 36.6693 126.384 36.5764C126.495 36.4835 126.57 36.3535 126.644 36.2235C126.718 36.0749 126.737 35.9077 126.737 35.7405Z" fill="#58595B"/>
<path d="M130.865 34.273V37.1894H130.623C130.586 37.1894 130.549 37.1894 130.53 37.1709C130.511 37.1523 130.474 37.1337 130.456 37.1151L128.411 34.9231C128.411 34.9603 128.411 34.9974 128.411 35.016C128.411 35.0346 128.411 35.0717 128.411 35.1089V37.1894H128.002V34.273H128.244C128.262 34.273 128.281 34.273 128.299 34.273C128.318 34.273 128.337 34.273 128.337 34.273C128.355 34.273 128.355 34.2915 128.374 34.2915C128.392 34.2915 128.392 34.3101 128.411 34.3287L130.456 36.5207C130.456 36.4835 130.456 36.4464 130.456 36.4092C130.456 36.3721 130.456 36.3535 130.456 36.3163V34.2544L130.865 34.273Z" fill="#58595B"/>
<path d="M133.654 34.7369C133.636 34.7555 133.617 34.7741 133.598 34.7741C133.58 34.7741 133.561 34.7927 133.543 34.7927C133.506 34.7927 133.487 34.7741 133.45 34.7555C133.413 34.737 133.357 34.6998 133.301 34.6812C133.245 34.6626 133.171 34.6255 133.097 34.6069C133.022 34.5883 132.929 34.5698 132.799 34.5698C132.688 34.5698 132.595 34.5883 132.52 34.6069C132.446 34.6255 132.372 34.6626 132.316 34.6998C132.26 34.737 132.223 34.7927 132.186 34.8484C132.149 34.9041 132.149 34.9599 132.149 35.0342C132.149 35.1085 132.167 35.1828 132.223 35.2385C132.279 35.2942 132.334 35.3314 132.409 35.3685C132.483 35.4057 132.576 35.4428 132.669 35.4614C132.762 35.48 132.874 35.5172 132.985 35.5543C133.097 35.5915 133.19 35.61 133.301 35.6472C133.394 35.6843 133.487 35.7401 133.561 35.7958C133.636 35.8515 133.71 35.9258 133.747 36.0001C133.803 36.0744 133.822 36.1859 133.822 36.2973C133.822 36.4274 133.803 36.5388 133.747 36.6503C133.691 36.7618 133.617 36.8546 133.524 36.9475C133.431 37.0218 133.301 37.0961 133.152 37.1519C133.004 37.2076 132.836 37.2262 132.65 37.2262C132.427 37.2262 132.204 37.189 132.018 37.1147C131.833 37.0404 131.665 36.9475 131.535 36.8361L131.665 36.6503C131.684 36.6317 131.702 36.6317 131.721 36.6131C131.74 36.6131 131.758 36.5946 131.777 36.5946C131.795 36.5946 131.833 36.5946 131.851 36.6131C131.888 36.6317 131.907 36.6503 131.944 36.6689C131.981 36.6874 132.018 36.706 132.056 36.7432C132.093 36.7618 132.149 36.7989 132.204 36.8175C132.26 36.8361 132.334 36.8546 132.39 36.8732C132.465 36.8918 132.539 36.8918 132.632 36.8918C132.743 36.8918 132.855 36.8732 132.929 36.8546C133.022 36.8361 133.097 36.7989 133.152 36.7432C133.208 36.6874 133.264 36.6317 133.301 36.576C133.338 36.5017 133.357 36.446 133.357 36.3531C133.357 36.2602 133.338 36.1859 133.282 36.1302C133.227 36.0744 133.171 36.0187 133.097 35.9816C133.022 35.9444 132.929 35.9073 132.836 35.8887C132.743 35.8701 132.632 35.8329 132.52 35.8144C132.409 35.7958 132.316 35.7586 132.204 35.7215C132.111 35.6843 132.018 35.6286 131.944 35.5729C131.87 35.5171 131.795 35.4428 131.758 35.35C131.702 35.2571 131.684 35.1456 131.684 35.0156C131.684 34.9041 131.702 34.8113 131.758 34.7184C131.814 34.6255 131.87 34.5326 131.963 34.4583C132.056 34.384 132.167 34.3283 132.297 34.2725C132.427 34.2354 132.595 34.1982 132.762 34.1982C132.966 34.1982 133.134 34.2168 133.301 34.2725C133.468 34.3283 133.598 34.4026 133.729 34.4955L133.654 34.7369Z" fill="#58595B"/>
<path d="M135.976 36.8736C136.125 36.8736 136.255 36.855 136.367 36.8179C136.478 36.7807 136.571 36.725 136.664 36.6507C136.738 36.5764 136.813 36.4835 136.85 36.3906C136.887 36.2792 136.906 36.1677 136.906 36.0562V34.2915H137.37V36.0562C137.37 36.2234 137.333 36.3906 137.277 36.5206C137.222 36.6693 137.129 36.7807 136.999 36.8922C136.868 37.0036 136.738 37.0779 136.552 37.1337C136.385 37.1894 136.181 37.2265 135.976 37.2265C135.772 37.2265 135.567 37.1894 135.4 37.1337C135.233 37.0779 135.084 36.985 134.954 36.8922C134.824 36.7807 134.731 36.6693 134.675 36.5206C134.619 36.372 134.582 36.2234 134.582 36.0562V34.2915H135.047V36.0562C135.047 36.1863 135.065 36.2977 135.103 36.3906C135.14 36.5021 135.214 36.5764 135.288 36.6507C135.363 36.725 135.456 36.7807 135.586 36.8179C135.716 36.855 135.846 36.8736 135.976 36.8736Z" fill="#58595B"/>
<path d="M140.325 36.855V37.1894H138.336V34.2729H138.801V36.855H140.325Z" fill="#58595B"/>
<path d="M142.872 34.6073H141.738V37.1894H141.274V34.6073H140.121V34.2729H142.872V34.6073Z" fill="#58595B"/>
<path d="M143.971 37.1894H143.506V34.2729H143.989V37.1894H143.971Z" fill="#58595B"/>
<path d="M147.818 34.273V37.1894H147.576C147.539 37.1894 147.502 37.1894 147.483 37.1709C147.465 37.1523 147.427 37.1337 147.409 37.1151L145.364 34.9231C145.364 34.9603 145.364 34.9974 145.364 35.016C145.364 35.0346 145.364 35.0717 145.364 35.1089V37.1894H144.955V34.273H145.197C145.215 34.273 145.234 34.273 145.252 34.273C145.271 34.273 145.29 34.273 145.29 34.273C145.308 34.273 145.308 34.2915 145.327 34.2915C145.345 34.2915 145.345 34.3101 145.364 34.3287L147.409 36.5207C147.409 36.4835 147.409 36.4464 147.409 36.4092C147.409 36.3721 147.409 36.3535 147.409 36.3163V34.2544L147.818 34.273Z" fill="#58595B"/>
<path d="M151.683 35.7962V36.9108C151.516 37.0222 151.312 37.0965 151.126 37.1523C150.921 37.208 150.698 37.2266 150.475 37.2266C150.196 37.2266 149.936 37.1894 149.713 37.1151C149.49 37.0408 149.285 36.9479 149.137 36.8179C148.988 36.6879 148.858 36.5392 148.765 36.3535C148.672 36.1677 148.635 35.9634 148.635 35.759C148.635 35.5361 148.672 35.3318 148.765 35.146C148.858 34.9603 148.969 34.8117 149.118 34.6816C149.267 34.5516 149.471 34.4401 149.676 34.3844C149.899 34.3101 150.14 34.2729 150.419 34.2729C150.568 34.2729 150.68 34.273 150.81 34.2915C150.921 34.3101 151.033 34.3287 151.144 34.3658C151.237 34.403 151.349 34.4401 151.423 34.4773C151.516 34.5144 151.59 34.5702 151.665 34.6259L151.535 34.8117C151.516 34.8302 151.479 34.8488 151.46 34.8674C151.423 34.8674 151.386 34.8674 151.349 34.8488C151.312 34.8302 151.256 34.8117 151.219 34.7745C151.163 34.7559 151.107 34.7188 151.033 34.7002C150.958 34.6816 150.884 34.663 150.772 34.6445C150.68 34.6259 150.549 34.6259 150.419 34.6259C150.215 34.6259 150.048 34.6445 149.88 34.7002C149.713 34.7559 149.583 34.8302 149.471 34.9231C149.36 35.016 149.267 35.146 149.211 35.2761C149.155 35.4247 149.118 35.5733 149.118 35.759C149.118 35.9448 149.155 36.112 149.211 36.242C149.267 36.3906 149.36 36.5021 149.471 36.6135C149.583 36.7064 149.731 36.7993 149.899 36.855C150.066 36.9108 150.252 36.9293 150.456 36.9293C150.624 36.9293 150.772 36.9108 150.903 36.8922C151.033 36.855 151.163 36.8179 151.274 36.7622V36.1306H150.717C150.68 36.1306 150.661 36.1306 150.642 36.112C150.624 36.0934 150.605 36.0748 150.605 36.0563V35.8333L151.683 35.7962Z" fill="#58595B"/>
</svg>
